<?xml version="1.0" encoding="UTF-8"?><svg width="112.448mm" height="29.6333mm" viewBox="0 0 425 112" xmlns="http://www.w3.org/2000/svg" xmlns:xlink="http://www.w3.org/1999/xlink"><g fill="none" stroke="black" stroke-width="1" fill-rule="evenodd" stroke-linecap="square" stroke-linejoin="bevel"><g clip-path="none" fill="#ffffff" fill-opacity="1" opacity="1" stroke="none" stroke-opacity="0" transform="matrix(1,0,0,1,0,0)"><path d="M0,0 L425,0 L425,112 L0,112 L0,0 z" fill-rule="evenodd" vector-effect="none"/></g><defs><clipPath id="clip3"><path d="M-172,-27 L253,-27 L253,85 L-172,85 L-172,-27 z"/></clipPath></defs><g clip-path="url(#clip3)" fill="#ffffff" fill-opacity="1" opacity="1" stroke="none" stroke-opacity="0" transform="matrix(1,0,0,1,172,27)"><path d="M0,0 L60,0 L60,34 L0,34 L0,0 z" fill-rule="evenodd" vector-effect="none"/></g><defs><clipPath id="clip7"><path d="M0,0 L61,0 L61,35 L0,35 L0,0 z"/></clipPath></defs><g clip-path="url(#clip7)" fill="none" opacity="1" stroke="none" stroke-opacity="0" transform="matrix(1,0,0,1,172,27)"><path d="M0,0 L61,0 L61,35 L0,35 L0,0 z" fill-rule="evenodd" vector-effect="none"/></g><defs><clipPath id="clip17"><path d="M-36,-18 L41,-18 L41,22 L-36,22 L-36,-18 z"/></clipPath></defs><g clip-path="url(#clip17)" fill="#000000" fill-opacity="1" opacity="1" stroke="none" stroke-opacity="0" transform="matrix(0.7,0,0,0.7,200.5,42.5)"><path d="M-29.2188,-13.7969 C-29.2188,-14.1562 -29.5312,-14.4844 -29.8906,-14.4844 C-30.2812,-14.4844 -30.5781,-14.1875 -30.5781,-13.8125 C-30.5781,-13.4219 -30.2969,-13.1094 -29.8906,-13.1094 C-29.5156,-13.1094 -29.2188,-13.4219 -29.2188,-13.7969 z" fill-rule="nonzero" vector-effect="none"/></g><defs><clipPath id="clip18"><path d="M-36,-18 L41,-18 L41,22 L-36,22 L-36,-18 z"/></clipPath></defs><g clip-path="url(#clip18)" fill="#000000" fill-opacity="1" opacity="1" stroke="none" stroke-opacity="0" transform="matrix(0.7,0,0,0.7,200.5,42.5)"><path d="M-30.5156,-8.96875 C-30.7188,-9.92188 -30.875,-10.1719 -31.2344,-10.1719 C-31.5469,-10.1719 -32.0156,-10.0781 -32.875,-9.76562 L-33.0312,-9.71875 L-32.9844,-9.48438 L-32.7344,-9.5625 C-32.4688,-9.625 -32.2969,-9.65625 -32.1875,-9.65625 C-31.8281,-9.65625 -31.7344,-9.54688 -31.5469,-8.70312 L-31.1406,-6.96875 L-32.2969,-5.34375 C-32.5938,-4.92188 -32.8594,-4.65625 -33.0156,-4.65625 C-33.0938,-4.65625 -33.2344,-4.70312 -33.375,-4.78125 C-33.5625,-4.875 -33.7031,-4.9375 -33.8281,-4.9375 C-34.1094,-4.9375 -34.2969,-4.71875 -34.2969,-4.4375 C-34.2969,-4.0625 -34.0312,-3.84375 -33.5938,-3.84375 C-33.1719,-3.84375 -32.8906,-3.96875 -32.2656,-4.79688 L-31.0312,-6.46875 L-30.625,-4.79688 C-30.4688,-4.09375 -30.25,-3.84375 -29.7969,-3.84375 C-29.2656,-3.84375 -28.9062,-4.1875 -28.0938,-5.4375 L-28.3125,-5.5625 C-28.4219,-5.42188 -28.4688,-5.34375 -28.5938,-5.17188 C-28.9219,-4.75 -29.0781,-4.60938 -29.25,-4.60938 C-29.4531,-4.60938 -29.5781,-4.79688 -29.6719,-5.1875 L-30.125,-7.0625 C-30.2031,-7.40625 -30.2344,-7.59375 -30.2344,-7.70312 C-29.625,-8.78125 -29.125,-9.39062 -28.8594,-9.39062 C-28.5312,-9.39062 -28.4062,-9.15625 -28.1406,-9.15625 C-27.8594,-9.15625 -27.6562,-9.35938 -27.6562,-9.65625 C-27.6562,-9.96875 -27.9062,-10.1719 -28.2344,-10.1719 C-28.8438,-10.1719 -29.375,-9.67188 -30.3438,-8.17188 L-30.5156,-8.96875 z" fill-rule="nonzero" vector-effect="none"/></g><defs><clipPath id="clip19"><path d="M-36,-18 L41,-18 L41,22 L-36,22 L-36,-18 z"/></clipPath></defs><g clip-path="url(#clip19)" fill="#000000" fill-opacity="1" opacity="1" stroke="none" stroke-opacity="0" transform="matrix(0.7,0,0,0.7,200.5,42.5)"><path d="M-14.9062,-8.48438 L-14.9062,-9.40625 L-23.1719,-9.40625 L-23.1719,-8.48438 L-14.9062,-8.48438 M-14.9062,-5.6875 L-14.9062,-6.60938 L-23.1719,-6.60938 L-23.1719,-5.6875 L-14.9062,-5.6875" fill-rule="nonzero" vector-effect="none"/></g><defs><clipPath id="clip20"><path d="M-36,-18 L41,-18 L41,22 L-36,22 L-36,-18 z"/></clipPath></defs><g clip-path="url(#clip20)" fill="#000000" fill-opacity="1" opacity="1" stroke="none" stroke-opacity="0" transform="matrix(0.7,0,0,0.7,200.5,42.5)"><path d="M-1.07812,-3.98438 L-1.07812,-4.20312 C-1.82812,-4.26562 -1.98438,-4.42188 -2.17188,-5.59375 L-3.46875,-13.3594 L-3.82812,-13.3594 L-7.82812,-6.39062 C-8.875,-4.57812 -9.04688,-4.34375 -9.70312,-4.20312 L-9.70312,-3.98438 L-7.09375,-3.98438 L-7.09375,-4.20312 C-7.75,-4.23438 -7.96875,-4.40625 -7.96875,-4.67188 C-7.96875,-4.89062 -7.84375,-5.23438 -7.65625,-5.59375 L-6.82812,-7.15625 L-3.75,-7.15625 L-3.46875,-5.3125 C-3.45312,-5.1875 -3.4375,-5.0625 -3.4375,-4.95312 C-3.4375,-4.46875 -3.64062,-4.25 -4.51562,-4.20312 L-4.51562,-3.98438 L-1.07812,-3.98438 M-3.8125,-7.65625 L-6.53125,-7.65625 L-4.45312,-11.3438 L-3.8125,-7.65625 M2.96875,-8.96875 C2.76562,-9.92188 2.60938,-10.1719 2.25,-10.1719 C1.9375,-10.1719 1.46875,-10.0781 0.609375,-9.76562 L0.453125,-9.71875 L0.5,-9.48438 L0.75,-9.5625 C1.01562,-9.625 1.1875,-9.65625 1.29688,-9.65625 C1.65625,-9.65625 1.75,-9.54688 1.9375,-8.70312 L2.34375,-6.96875 L1.1875,-5.34375 C0.890625,-4.92188 0.625,-4.65625 0.46875,-4.65625 C0.390625,-4.65625 0.25,-4.70312 0.109375,-4.78125 C-0.078125,-4.875 -0.21875,-4.9375 -0.34375,-4.9375 C-0.625,-4.9375 -0.8125,-4.71875 -0.8125,-4.4375 C-0.8125,-4.0625 -0.546875,-3.84375 -0.109375,-3.84375 C0.3125,-3.84375 0.59375,-3.96875 1.21875,-4.79688 L2.45312,-6.46875 L2.85938,-4.79688 C3.01562,-4.09375 3.23438,-3.84375 3.6875,-3.84375 C4.21875,-3.84375 4.57812,-4.1875 5.39062,-5.4375 L5.17188,-5.5625 C5.0625,-5.42188 5.01562,-5.34375 4.89062,-5.17188 C4.5625,-4.75 4.40625,-4.60938 4.23438,-4.60938 C4.03125,-4.60938 3.90625,-4.79688 3.8125,-5.1875 L3.35938,-7.0625 C3.28125,-7.40625 3.25,-7.59375 3.25,-7.70312 C3.85938,-8.78125 4.35938,-9.39062 4.625,-9.39062 C4.95312,-9.39062 5.07812,-9.15625 5.34375,-9.15625 C5.625,-9.15625 5.82812,-9.35938 5.82812,-9.65625 C5.82812,-9.96875 5.57812,-10.1719 5.25,-10.1719 C4.64062,-10.1719 4.10938,-9.67188 3.14062,-8.17188 L2.96875,-8.96875" fill-rule="nonzero" vector-effect="none"/></g><defs><clipPath id="clip21"><path d="M-36,-18 L41,-18 L41,22 L-36,22 L-36,-18 z"/></clipPath></defs><g clip-path="url(#clip21)" fill="#000000" fill-opacity="1" opacity="1" stroke="none" stroke-opacity="0" transform="matrix(0.7,0,0,0.7,200.5,42.5)"><path d="M17.7969,-7.07812 L17.7969,-8 L14.1406,-8 L14.1406,-11.6562 L13.2031,-11.6562 L13.2031,-8 L9.54688,-8 L9.54688,-7.07812 L13.2031,-7.07812 L13.2031,-3.42188 L14.1406,-3.42188 L14.1406,-7.07812 L17.7969,-7.07812 z" fill-rule="nonzero" vector-effect="none"/></g><defs><clipPath id="clip22"><path d="M-36,-18 L41,-18 L41,22 L-36,22 L-36,-18 z"/></clipPath></defs><g clip-path="url(#clip22)" fill="#000000" fill-opacity="1" opacity="1" stroke="none" stroke-opacity="0" transform="matrix(0.7,0,0,0.7,200.5,42.5)"><path d="M24.0781,-13.1562 L24.0781,-12.9375 C24.9531,-12.8594 25.1562,-12.7656 25.1562,-12.3594 C25.1562,-12.1562 25.0938,-11.8125 25,-11.4688 L23.2969,-5.32812 C23.0625,-4.46875 22.9062,-4.32812 22.1406,-4.20312 L22.1406,-3.98438 L25.9531,-3.98438 C28.2188,-3.98438 29.7969,-4.90625 29.7969,-6.79688 C29.7969,-7.79688 29.2344,-8.53125 28.0312,-8.90625 L28.0312,-8.92188 C28.6406,-9.04688 29.1562,-9.17188 29.5938,-9.46875 C30.0938,-9.79688 30.4844,-10.2969 30.4844,-11.0469 C30.4844,-12.4531 29.5156,-13.1562 27.5781,-13.1562 L24.0781,-13.1562 M25.7188,-9.09375 L26.6094,-12.2344 C26.75,-12.7344 26.8906,-12.7344 27.4375,-12.7344 C28.5625,-12.7344 29.0781,-12.2656 29.0781,-11.2188 C29.0781,-9.82812 28.0938,-9.09375 26.25,-9.09375 L25.7188,-9.09375 M25.5781,-8.64062 C26.4688,-8.64062 27.0625,-8.5625 27.3438,-8.46875 C27.875,-8.28125 28.2812,-7.67188 28.2812,-6.79688 C28.2812,-5.23438 27.1875,-4.40625 25.5781,-4.40625 C25,-4.40625 24.6406,-4.60938 24.6406,-5 C24.6406,-5.17188 24.8594,-5.89062 25.1406,-6.96875 L25.5781,-8.64062 M37.25,-5.67188 C36.5469,-4.73438 36.3125,-4.53125 36.0938,-4.53125 C36,-4.53125 35.9375,-4.60938 35.9375,-4.76562 C35.9375,-4.9375 36.1406,-5.59375 36.2031,-5.85938 L37.3125,-10.0469 L36.2812,-10.0469 C35.5938,-8.17188 35.3906,-7.64062 34.7344,-6.64062 C33.8594,-5.32812 33.2188,-4.59375 32.75,-4.59375 C32.5312,-4.59375 32.4688,-4.73438 32.4688,-4.9375 C32.4688,-5 32.4844,-5.125 32.5,-5.15625 L33.75,-10.1406 L33.7031,-10.1719 C32.8906,-10 32.3906,-9.89062 31.5938,-9.79688 L31.5938,-9.60938 C32.125,-9.60938 32.1719,-9.59375 32.2969,-9.51562 C32.375,-9.48438 32.4531,-9.35938 32.4531,-9.26562 C32.4531,-9.15625 32.3594,-8.79688 32.25,-8.32812 L31.7656,-6.375 C31.5156,-5.35938 31.3906,-4.85938 31.3906,-4.59375 C31.3906,-4.0625 31.6406,-3.84375 32.125,-3.84375 C33.125,-3.84375 33.8281,-4.59375 35.4688,-7.3125 C35.0312,-5.79688 34.8438,-4.85938 34.8438,-4.54688 C34.8438,-4.10938 35.0938,-3.875 35.5156,-3.875 C36.1719,-3.875 36.5469,-4.15625 37.4531,-5.54688 L37.25,-5.67188" fill-rule="nonzero" vector-effect="none"/></g><defs><clipPath id="clip23"><path d="M-36,-18 L41,-18 L41,22 L-36,22 L-36,-18 z"/></clipPath></defs><g clip-path="url(#clip23)" fill="#000000" fill-opacity="1" opacity="1" stroke="none" stroke-opacity="0" transform="matrix(0.7,0,0,0.7,200.5,42.5)"><path d="M-30.2344,14.3906 C-30.4688,13.1406 -31.2188,10.8281 -31.4219,10.8281 L-31.4844,10.8281 C-32.2344,10.9375 -32.7031,11.0156 -32.9844,11.0781 C-33.125,11.1094 -33.2812,11.125 -33.4375,11.1562 L-33.4375,11.3906 C-33.2812,11.3594 -33.1562,11.3438 -33,11.3438 C-32.4375,11.3438 -32.1875,11.5469 -31.9219,12.2344 C-31.5469,13.1875 -30.7656,16.3281 -30.7656,16.8906 C-30.7656,17.0469 -30.8281,17.2031 -30.9062,17.375 C-31.0156,17.5625 -31.6562,18.3906 -31.9062,18.6562 C-32.2188,19 -32.3906,19.1094 -32.5781,19.1094 C-32.9375,19.1094 -32.9375,18.7188 -33.4375,18.7188 C-33.7344,18.7188 -33.9844,18.9688 -33.9844,19.2812 C-33.9844,19.6406 -33.6875,19.8906 -33.2656,19.8906 C-32.4688,19.8906 -30.9688,18.2812 -29.5156,15.8594 C-28.3438,13.9375 -27.6719,12.3906 -27.6719,11.5938 C-27.6719,11.1719 -27.9844,10.8281 -28.4062,10.8281 C-28.7188,10.8281 -28.9688,11.0312 -28.9688,11.3438 C-28.9688,11.5625 -28.875,11.7031 -28.5938,11.8906 C-28.3281,12.0625 -28.2344,12.1406 -28.2344,12.3281 C-28.2344,12.9531 -28.75,13.9531 -29.9375,15.9375 L-30.2344,14.3906 z" fill-rule="nonzero" vector-effect="none"/></g><defs><clipPath id="clip24"><path d="M-36,-18 L41,-18 L41,22 L-36,22 L-36,-18 z"/></clipPath></defs><g clip-path="url(#clip24)" fill="#000000" fill-opacity="1" opacity="1" stroke="none" stroke-opacity="0" transform="matrix(0.7,0,0,0.7,200.5,42.5)"><path d="M-14.625,12.5156 L-14.625,11.5938 L-22.8906,11.5938 L-22.8906,12.5156 L-14.625,12.5156 M-14.625,15.3125 L-14.625,14.3906 L-22.8906,14.3906 L-22.8906,15.3125 L-14.625,15.3125" fill-rule="nonzero" vector-effect="none"/></g><defs><clipPath id="clip25"><path d="M-36,-18 L41,-18 L41,22 L-36,22 L-36,-18 z"/></clipPath></defs><g clip-path="url(#clip25)" fill="#000000" fill-opacity="1" opacity="1" stroke="none" stroke-opacity="0" transform="matrix(0.7,0,0,0.7,200.5,42.5)"><path d="M-0.453125,7.70312 L-0.75,7.70312 C-0.859375,7.92188 -1,8 -1.28125,8 C-1.40625,8 -1.57812,8 -1.85938,7.90625 C-2.45312,7.70312 -3.03125,7.67188 -3.5,7.67188 C-4.60938,7.67188 -5.67188,8.04688 -6.5625,8.6875 C-8.10938,9.78125 -9.1875,11.625 -9.1875,13.5938 C-9.1875,15.9062 -7.67188,17.25 -5.53125,17.25 C-4.09375,17.25 -2.96875,16.6562 -1.70312,15.1719 L-1.95312,14.9531 C-3.17188,16.2188 -4.01562,16.625 -5.17188,16.625 C-6.71875,16.625 -7.60938,15.7188 -7.60938,13.75 C-7.60938,12.2031 -7.10938,10.6094 -6.10938,9.53125 C-5.32812,8.70312 -4.35938,8.17188 -3.3125,8.17188 C-2.07812,8.17188 -1.39062,8.95312 -1.23438,10.4531 L-0.96875,10.5 L-0.453125,7.70312 M2.625,12.0312 C2.42188,11.0781 2.26562,10.8281 1.90625,10.8281 C1.59375,10.8281 1.125,10.9219 0.265625,11.2344 L0.109375,11.2812 L0.15625,11.5156 L0.40625,11.4375 C0.671875,11.375 0.84375,11.3438 0.953125,11.3438 C1.3125,11.3438 1.40625,11.4531 1.59375,12.2969 L2,14.0312 L0.84375,15.6562 C0.546875,16.0781 0.28125,16.3438 0.125,16.3438 C0.046875,16.3438 -0.09375,16.2969 -0.234375,16.2188 C-0.421875,16.125 -0.5625,16.0625 -0.6875,16.0625 C-0.96875,16.0625 -1.15625,16.2812 -1.15625,16.5625 C-1.15625,16.9375 -0.890625,17.1562 -0.453125,17.1562 C-0.03125,17.1562 0.25,17.0312 0.875,16.2031 L2.10938,14.5312 L2.51562,16.2031 C2.67188,16.9062 2.89062,17.1562 3.34375,17.1562 C3.875,17.1562 4.23438,16.8125 5.04688,15.5625 L4.82812,15.4375 C4.71875,15.5781 4.67188,15.6562 4.54688,15.8281 C4.21875,16.25 4.0625,16.3906 3.89062,16.3906 C3.6875,16.3906 3.5625,16.2031 3.46875,15.8125 L3.01562,13.9375 C2.9375,13.5938 2.90625,13.4062 2.90625,13.2969 C3.51562,12.2188 4.01562,11.6094 4.28125,11.6094 C4.60938,11.6094 4.73438,11.8438 5,11.8438 C5.28125,11.8438 5.48438,11.6406 5.48438,11.3438 C5.48438,11.0312 5.23438,10.8281 4.90625,10.8281 C4.29688,10.8281 3.76562,11.3281 2.79688,12.8281 L2.625,12.0312" fill-rule="nonzero" vector-effect="none"/></g><defs><clipPath id="clip26"><path d="M-36,-18 L41,-18 L41,22 L-36,22 L-36,-18 z"/></clipPath></defs><g clip-path="url(#clip26)" fill="#000000" fill-opacity="1" opacity="1" stroke="none" stroke-opacity="0" transform="matrix(0.7,0,0,0.7,200.5,42.5)"><path d="M17.4531,13.9219 L17.4531,13 L13.7969,13 L13.7969,9.34375 L12.8594,9.34375 L12.8594,13 L9.20312,13 L9.20312,13.9219 L12.8594,13.9219 L12.8594,17.5781 L13.7969,17.5781 L13.7969,13.9219 L17.4531,13.9219 z" fill-rule="nonzero" vector-effect="none"/></g><defs><clipPath id="clip27"><path d="M-36,-18 L41,-18 L41,22 L-36,22 L-36,-18 z"/></clipPath></defs><g clip-path="url(#clip27)" fill="#000000" fill-opacity="1" opacity="1" stroke="none" stroke-opacity="0" transform="matrix(0.7,0,0,0.7,200.5,42.5)"><path d="M23.7344,7.84375 L23.7344,8.0625 C24.5938,8.09375 24.8125,8.26562 24.8125,8.64062 C24.8125,8.84375 24.75,9.10938 24.6562,9.46875 L22.9375,15.7188 C22.7188,16.5469 22.5781,16.6562 21.7969,16.7969 L21.7969,17.0156 L25.3906,17.0156 C27.0312,17.0156 28.4531,16.6562 29.4688,15.8438 C30.8438,14.7812 31.7188,13.3594 31.7188,11.625 C31.7188,9.15625 30.0781,7.84375 27.625,7.84375 L23.7344,7.84375 M26.25,8.8125 C26.3906,8.3125 26.7031,8.26562 27.2344,8.26562 C28.0469,8.26562 28.625,8.42188 29.0625,8.75 C29.75,9.26562 30.1562,10.1562 30.1562,11.2812 C30.1562,12.7031 29.6094,14.3594 28.6094,15.3281 C27.75,16.1719 26.6562,16.5938 25.2344,16.5938 C24.5938,16.5938 24.2812,16.4375 24.2812,16.0781 C24.2812,15.8906 24.3594,15.6094 24.5938,14.7344 L26.25,8.8125 M38.4531,15.3281 C37.75,16.2656 37.5156,16.4688 37.2969,16.4688 C37.2031,16.4688 37.1406,16.3906 37.1406,16.2344 C37.1406,16.0625 37.3438,15.4062 37.4062,15.1406 L38.5156,10.9531 L37.4844,10.9531 C36.7969,12.8281 36.5938,13.3594 35.9375,14.3594 C35.0625,15.6719 34.4219,16.4062 33.9531,16.4062 C33.7344,16.4062 33.6719,16.2656 33.6719,16.0625 C33.6719,16 33.6875,15.875 33.7031,15.8438 L34.9531,10.8594 L34.9062,10.8281 C34.0938,11 33.5938,11.1094 32.7969,11.2031 L32.7969,11.3906 C33.3281,11.3906 33.375,11.4062 33.5,11.4844 C33.5781,11.5156 33.6562,11.6406 33.6562,11.7344 C33.6562,11.8438 33.5625,12.2031 33.4531,12.6719 L32.9688,14.625 C32.7188,15.6406 32.5938,16.1406 32.5938,16.4062 C32.5938,16.9375 32.8438,17.1562 33.3281,17.1562 C34.3281,17.1562 35.0312,16.4062 36.6719,13.6875 C36.2344,15.2031 36.0469,16.1406 36.0469,16.4531 C36.0469,16.8906 36.2969,17.125 36.7188,17.125 C37.375,17.125 37.75,16.8438 38.6562,15.4531 L38.4531,15.3281" fill-rule="nonzero" vector-effect="none"/></g><defs><clipPath id="clip44"><path d="M-172.5,-27.5 L252.5,-27.5 L252.5,84.5 L-172.5,84.5 L-172.5,-27.5 z"/></clipPath></defs><g clip-path="url(#clip44)" fill="none" opacity="1" stroke="#000000" stroke-linecap="butt" stroke-linejoin="miter" stroke-miterlimit="2" stroke-opacity="1" stroke-width="1" transform="matrix(1,0,0,1,172.5,27.5)"><path d="M0,0 L60,0 L60,34 L0,34 L0,0 z" fill-rule="evenodd" vector-effect="none"/></g><defs><clipPath id="clip47"><path d="M-2,-49 L423,-49 L423,63 L-2,63 L-2,-49 z"/></clipPath></defs><g clip-path="url(#clip47)" fill="#ffffff" fill-opacity="1" opacity="1" stroke="none" stroke-opacity="0" transform="matrix(1,0,0,1,2,49)"><path d="M0,0 L30,0 L30,30 L0,30 L0,0 z" fill-rule="evenodd" vector-effect="none"/></g><defs><clipPath id="clip51"><path d="M0,0 L31,0 L31,31 L0,31 L0,0 z"/></clipPath></defs><g clip-path="url(#clip51)" fill="none" opacity="1" stroke="none" stroke-opacity="0" transform="matrix(1,0,0,1,2,49)"><path d="M0,0 L31,0 L31,31 L0,31 L0,0 z" fill-rule="evenodd" vector-effect="none"/></g><defs><clipPath id="clip61"><path d="M0,0 L33,0 L33,33 L0,33 L0,0 z"/></clipPath></defs><g clip-path="url(#clip61)" fill="none" opacity="1" stroke="#000000" stroke-linecap="round" stroke-linejoin="round" stroke-opacity="1" stroke-width="1" transform="matrix(1,0,0,1,0.9999,47.9999)"><path d="M4.5,26.5 L16.5,26.5 L16.5,6.5 L28.5,6.5" fill-rule="nonzero" vector-effect="none"/></g><defs><clipPath id="clip78"><path d="M-2.5,-49.5 L422.5,-49.5 L422.5,62.5 L-2.5,62.5 L-2.5,-49.5 z"/></clipPath></defs><g clip-path="url(#clip78)" fill="none" opacity="1" stroke="#000000" stroke-linecap="butt" stroke-linejoin="miter" stroke-miterlimit="2" stroke-opacity="1" stroke-width="1" transform="matrix(1,0,0,1,2.5,49.5)"><path d="M0,0 L30,0 L30,30 L0,30 L0,0 z" fill-rule="evenodd" vector-effect="none"/></g><defs><clipPath id="clip81"><path d="M-392,-12 L33,-12 L33,100 L-392,100 L-392,-12 z"/></clipPath></defs><g clip-path="url(#clip81)" fill="#ffffff" fill-opacity="1" opacity="1" stroke="none" stroke-opacity="0" transform="matrix(1,0,0,1,392,12)"><path d="M0,0 L30,0 L30,34 L0,34 L0,0 z" fill-rule="evenodd" vector-effect="none"/></g><defs><clipPath id="clip85"><path d="M0,0 L31,0 L31,35 L0,35 L0,0 z"/></clipPath></defs><g clip-path="url(#clip85)" fill="none" opacity="1" stroke="none" stroke-opacity="0" transform="matrix(1,0,0,1,392,12)"><path d="M0,0 L31,0 L31,35 L0,35 L0,0 z" fill-rule="evenodd" vector-effect="none"/></g><defs><clipPath id="clip95"><path d="M0,0 L33,0 L33,38 L0,38 L0,0 z"/></clipPath></defs><g clip-path="url(#clip95)" fill="none" opacity="1" stroke="#000000" stroke-linecap="round" stroke-linejoin="round" stroke-opacity="1" stroke-width="1.3" transform="matrix(1,0,0,1,391,10.9999)"><path d="M7.5,5.5 L25.5,5.5 C26.6046,5.5 27.5,6.51482 27.5,7.76667 L27.5,18.2333 C27.5,19.4852 26.6046,20.5 25.5,20.5 L7.5,20.5 C6.39543,20.5 5.5,19.4852 5.5,18.2333 L5.5,7.76667 C5.5,6.51482 6.39543,5.5 7.5,5.5 z" fill-rule="nonzero" vector-effect="none"/></g><defs><clipPath id="clip112"><path d="M-392.5,-12.5 L32.5,-12.5 L32.5,99.5 L-392.5,99.5 L-392.5,-12.5 z"/></clipPath></defs><g clip-path="url(#clip112)" fill="none" opacity="1" stroke="#000000" stroke-linecap="butt" stroke-linejoin="miter" stroke-miterlimit="2" stroke-opacity="1" stroke-width="1" transform="matrix(1,0,0,1,392.5,12.5)"><path d="M0,0 L30,0 L30,34 L0,34 L0,0 z" fill-rule="evenodd" vector-effect="none"/></g><defs><clipPath id="clip115"><path d="M-262,-2 L163,-2 L163,110 L-262,110 L-262,-2 z"/></clipPath></defs><g clip-path="url(#clip115)" fill="#ffffff" fill-opacity="1" opacity="1" stroke="none" stroke-opacity="0" transform="matrix(1,0,0,1,262,2)"><path d="M0,0 L30,0 L30,84 L0,84 L0,0 z" fill-rule="evenodd" vector-effect="none"/></g><defs><clipPath id="clip119"><path d="M408,106 L442,106 L442,194 L408,194 L408,106 z"/></clipPath></defs><g clip-path="url(#clip119)" fill="#000000" fill-opacity="1" opacity="1" stroke="none" stroke-opacity="0" transform="matrix(1,0,0,1,-148,-106)"><path d="M410,108 L440,108 L440,192 L410,192 L410,108 z" fill-rule="evenodd" vector-effect="none"/></g><defs><clipPath id="clip124"><path d="M-262.5,-2.5 L162.5,-2.5 L162.5,109.5 L-262.5,109.5 L-262.5,-2.5 z"/></clipPath></defs><g clip-path="url(#clip124)" fill="none" opacity="1" stroke="#000000" stroke-linecap="butt" stroke-linejoin="miter" stroke-miterlimit="2" stroke-opacity="1" stroke-width="1" transform="matrix(1,0,0,1,262.5,2.5)"><path d="M0,0 L30,0 L30,84 L0,84 L0,0 z" fill-rule="evenodd" vector-effect="none"/></g><defs><clipPath id="clip129"><path d="M148,106 L573,106 L573,218 L148,218 L148,106 z"/></clipPath></defs><g clip-path="url(#clip129)" fill="none" opacity="1" stroke="#000000" stroke-linecap="butt" stroke-linejoin="miter" stroke-miterlimit="2" stroke-opacity="1" stroke-width="1" transform="matrix(1,0,0,1,-148,-106)"><path d="M180.5,170.5 L218.5,170.5" fill-rule="evenodd" vector-effect="none"/></g><defs><clipPath id="clip132"><path d="M-172,-44 L253,-44 L253,68 L-172,68 L-172,-44 z"/></clipPath></defs><g clip-path="url(#clip132)" fill="#000000" fill-opacity="1" opacity="1" stroke="none" stroke-opacity="0" transform="matrix(1,0,0,1,172,44)"><path d="M0,0 L-8,-4 L-8,4 L0,0 z" fill-rule="nonzero" vector-effect="none"/></g><defs><clipPath id="clip135"><path d="M148,106 L573,106 L573,218 L148,218 L148,106 z"/></clipPath></defs><g clip-path="url(#clip135)" fill="none" opacity="1" stroke="#000000" stroke-linecap="butt" stroke-linejoin="miter" stroke-miterlimit="2" stroke-opacity="1" stroke-width="1" transform="matrix(1,0,0,1,-148,-106)"><path d="M218.5,170.5 L218.5,150.5 L312.5,150.5" fill-rule="evenodd" vector-effect="none"/></g><defs><clipPath id="clip138"><path d="M-392,-44 L33,-44 L33,68 L-392,68 L-392,-44 z"/></clipPath></defs><g clip-path="url(#clip138)" fill="#000000" fill-opacity="1" opacity="1" stroke="none" stroke-opacity="0" transform="matrix(1,0,0,1,392,44)"><path d="M0,0 L-8,-4 L-8,4 L0,0 z" fill-rule="nonzero" vector-effect="none"/></g><defs><clipPath id="clip141"><path d="M148,106 L573,106 L573,218 L148,218 L148,106 z"/></clipPath></defs><g clip-path="url(#clip141)" fill="none" opacity="1" stroke="#000000" stroke-linecap="butt" stroke-linejoin="miter" stroke-miterlimit="2" stroke-opacity="1" stroke-width="1" transform="matrix(1,0,0,1,-148,-106)"><path d="M218.5,170.5 L218.5,216.5 L523.5,216.5 L523.5,150.5 L532.5,150.5" fill-rule="evenodd" vector-effect="none"/></g><defs><clipPath id="clip144"><path d="M-70,-64 L355,-64 L355,48 L-70,48 L-70,-64 z"/></clipPath></defs><g clip-path="url(#clip144)" fill="#000000" fill-opacity="1" opacity="1" stroke="none" stroke-opacity="0" transform="matrix(1,0,0,1,70,64)"><path d="M3,0.5 C3,1.88071 1.88071,3 0.5,3 C-0.880712,3 -2,1.88071 -2,0.5 C-2,-0.880712 -0.880712,-2 0.5,-2 C1.88071,-2 3,-0.880712 3,0.5 z" fill-rule="evenodd" vector-effect="none"/></g><defs><clipPath id="clip147"><path d="M-262,-44 L163,-44 L163,68 L-262,68 L-262,-44 z"/></clipPath></defs><g clip-path="url(#clip147)" fill="#000000" fill-opacity="1" opacity="1" stroke="none" stroke-opacity="0" transform="matrix(1,0,0,1,262,44)"><path d="M0,0 L-8,-4 L-8,4 L0,0 z" fill-rule="nonzero" vector-effect="none"/></g><defs><clipPath id="clip150"><path d="M148,106 L573,106 L573,218 L148,218 L148,106 z"/></clipPath></defs><g clip-path="url(#clip150)" fill="none" opacity="1" stroke="#000000" stroke-linecap="butt" stroke-linejoin="miter" stroke-miterlimit="2" stroke-opacity="1" stroke-width="1" transform="matrix(1,0,0,1,-148,-106)"><path d="M380.5,150.5 L402.5,150.5" fill-rule="evenodd" vector-effect="none"/></g><defs><clipPath id="clip153"><path d="M-392,-14 L33,-14 L33,98 L-392,98 L-392,-14 z"/></clipPath></defs><g clip-path="url(#clip153)" fill="#000000" fill-opacity="1" opacity="1" stroke="none" stroke-opacity="0" transform="matrix(1,0,0,1,392,14)"><path d="M0,0 L-8,-4 L-8,4 L0,0 z" fill-rule="nonzero" vector-effect="none"/></g><defs><clipPath id="clip156"><path d="M148,106 L573,106 L573,218 L148,218 L148,106 z"/></clipPath></defs><g clip-path="url(#clip156)" fill="none" opacity="1" stroke="#000000" stroke-linecap="butt" stroke-linejoin="miter" stroke-miterlimit="2" stroke-opacity="1" stroke-width="1" transform="matrix(1,0,0,1,-148,-106)"><path d="M440.5,120.5 L532.5,120.5" fill-rule="evenodd" vector-effect="none"/></g><defs><clipPath id="clip162"><path d="M0,0 L12,0 L12,13 L0,13 L0,0 z"/></clipPath></defs><g clip-path="url(#clip162)" fill="none" opacity="1" stroke="#000000" stroke-linecap="square" stroke-linejoin="bevel" stroke-opacity="1" stroke-width="1" transform="matrix(1,0,0,1,331.25,15.5)"><text fill="#000000" fill-opacity="1" font-family="Arial" font-size="9" font-style="normal" font-weight="400" stroke="none" textLength="9.5" x="1" xml:space="preserve" y="10">y1</text></g><defs><clipPath id="clip170"><path d="M-392,-24 L33,-24 L33,88 L-392,88 L-392,-24 z"/></clipPath></defs><g clip-path="url(#clip170)" fill="#000000" fill-opacity="1" opacity="1" stroke="none" stroke-opacity="0" transform="matrix(1,0,0,1,392,24)"><path d="M0,0 L-8,-4 L-8,4 L0,0 z" fill-rule="nonzero" vector-effect="none"/></g><defs><clipPath id="clip173"><path d="M148,106 L573,106 L573,218 L148,218 L148,106 z"/></clipPath></defs><g clip-path="url(#clip173)" fill="none" opacity="1" stroke="#000000" stroke-linecap="butt" stroke-linejoin="miter" stroke-miterlimit="2" stroke-opacity="1" stroke-width="1" transform="matrix(1,0,0,1,-148,-106)"><path d="M440.5,150.5 L485.5,150.5 L485.5,130.5 L532.5,130.5" fill-rule="evenodd" vector-effect="none"/></g><defs><clipPath id="clip179"><path d="M0,0 L12,0 L12,13 L0,13 L0,0 z"/></clipPath></defs><g clip-path="url(#clip179)" fill="none" opacity="1" stroke="#000000" stroke-linecap="square" stroke-linejoin="bevel" stroke-opacity="1" stroke-width="1" transform="matrix(1,0,0,1,311.25,45.5)"><text fill="#000000" fill-opacity="1" font-family="Arial" font-size="9" font-style="normal" font-weight="400" stroke="none" textLength="9.5" x="1" xml:space="preserve" y="10">y2</text></g><defs><clipPath id="clip187"><path d="M-392,-34 L33,-34 L33,78 L-392,78 L-392,-34 z"/></clipPath></defs><g clip-path="url(#clip187)" fill="#000000" fill-opacity="1" opacity="1" stroke="none" stroke-opacity="0" transform="matrix(1,0,0,1,392,34)"><path d="M0,0 L-8,-4 L-8,4 L0,0 z" fill-rule="nonzero" vector-effect="none"/></g><defs><clipPath id="clip190"><path d="M148,106 L573,106 L573,218 L148,218 L148,106 z"/></clipPath></defs><g clip-path="url(#clip190)" fill="none" opacity="1" stroke="#000000" stroke-linecap="butt" stroke-linejoin="miter" stroke-miterlimit="2" stroke-opacity="1" stroke-width="1" transform="matrix(1,0,0,1,-148,-106)"><path d="M440.5,180.5 L505.5,180.5 L505.5,140.5 L532.5,140.5" fill-rule="evenodd" vector-effect="none"/></g><defs><clipPath id="clip196"><path d="M0,0 L12,0 L12,13 L0,13 L0,0 z"/></clipPath></defs><g clip-path="url(#clip196)" fill="none" opacity="1" stroke="#000000" stroke-linecap="square" stroke-linejoin="bevel" stroke-opacity="1" stroke-width="1" transform="matrix(1,0,0,1,358.5,47.5)"><text fill="#000000" fill-opacity="1" font-family="Arial" font-size="9" font-style="normal" font-weight="400" stroke="none" textLength="9.5" x="1" xml:space="preserve" y="10">y3</text></g></g><!--generated on windows @ 2024-11-08 04:20:55 GMT Standard Time--></svg>
